<svg xmlns="http://www.w3.org/2000/svg" viewBox="0 0 230.66 62.67"><defs><style>.cls-1{fill:#fb0;}.cls-2{font-size:28px;fill:#fcfcfc;font-family:PassionOne-Regular, Passion One;}</style></defs><g id="Layer_2" data-name="Layer 2"><g id="Layer_1-2" data-name="Layer 1"><path class="cls-1" d="M61,58.9c34.35,0,59.41,0,61.33-.09a3.32,3.32,0,0,0,2.3-.81,2.53,2.53,0,0,0,.7-1.44,1.89,1.89,0,0,0,0-.94V24.73c-1.49-3.32-4.64-5.23-7.56-4.8a6.71,6.71,0,0,0-4.17,2.59c-10,8.58-11.59,16.06-11.68,20.27q0,.42,0,.84L61,44.1Z"/><path class="cls-1" d="M64.37,58.9c-34.34,0-59.4,0-61.32-.09A3.32,3.32,0,0,1,.75,58,2.58,2.58,0,0,1,0,56.56a2,2,0,0,1,0-.94V24.73c1.49-3.32,4.63-5.23,7.56-4.8a6.71,6.71,0,0,1,4.17,2.59c10,8.58,11.59,16.06,11.68,20.27q0,.42,0,.84l40.86.47Z"/><path class="cls-1" d="M27.3,39.37l36-.33c-.05-2.5-.11-5-.16-7.51H24.79C25.63,34.14,26.46,36.76,27.3,39.37Z"/><path class="cls-1" d="M97.8,39.37l-36-.33c.05-2.5.11-5,.16-7.51H100.3C99.47,34.14,98.64,36.76,97.8,39.37Z"/><path class="cls-1" d="M20.83,26.52S16.49,16.29,5.92,15.06V11.34S6,2.49,14.05,2.6s37.6,0,37.6,0,7.78.78,7.9,9.91,0,14,0,14Z"/><path class="cls-1" d="M104.09,26.52S108.43,16.29,119,15.06V11.34s-.11-8.85-8.12-8.74-37.6,0-37.6,0-7.79.78-7.9,9.91,0,14,0,14Z"/><text class="cls-2" transform="translate(147.01 22.69)">Dytro<tspan x="-6.57" y="33.6">Biloval</tspan></text></g></g></svg>